<svg width="129" height="33" viewBox="0 0 129 33" fill="none" xmlns="http://www.w3.org/2000/svg">
<path d="M6.28 4.08V21.36C6.28 23.2533 6.77333 24.7067 7.76 25.72C8.74667 26.7067 10.1333 27.2 11.92 27.2C13.7333 27.2 15.1333 26.7067 16.12 25.72C17.1067 24.7067 17.6 23.2533 17.6 21.36V4.08H23.24V21.32C23.24 23.6933 22.72 25.7067 21.68 27.36C20.6667 28.9867 19.2933 30.2133 17.56 31.04C15.8533 31.8667 13.9467 32.28 11.84 32.28C9.76 32.28 7.86667 31.8667 6.16 31.04C4.48 30.2133 3.14667 28.9867 2.16 27.36C1.17333 25.7067 0.68 23.6933 0.68 21.32V4.08H6.28ZM56.1706 9.52C58.8906 9.52 61.0773 10.36 62.7306 12.04C64.4106 13.6933 65.2506 16.0133 65.2506 19V32H59.6506V19.76C59.6506 18.0267 59.2106 16.7067 58.3306 15.8C57.4506 14.8667 56.2506 14.4 54.7306 14.4C53.2106 14.4 51.9973 14.8667 51.0906 15.8C50.2106 16.7067 49.7706 18.0267 49.7706 19.76V32H44.1706V19.76C44.1706 18.0267 43.7306 16.7067 42.8506 15.8C41.9706 14.8667 40.7706 14.4 39.2506 14.4C37.704 14.4 36.4773 14.8667 35.5706 15.8C34.6906 16.7067 34.2506 18.0267 34.2506 19.76V32H28.6506V9.84H34.2506V12.52C34.9706 11.5867 35.8906 10.8533 37.0106 10.32C38.1573 9.78666 39.4106 9.52 40.7706 9.52C42.504 9.52 44.0506 9.89333 45.4106 10.64C46.7706 11.36 47.824 12.4 48.5706 13.76C49.2906 12.48 50.3306 11.4533 51.6906 10.68C53.0773 9.90667 54.5706 9.52 56.1706 9.52ZM80.4047 32.36C78.2714 32.36 76.3514 31.8933 74.6447 30.96C72.938 30 71.5914 28.6533 70.6047 26.92C69.6447 25.1867 69.1647 23.1867 69.1647 20.92C69.1647 18.6533 69.658 16.6533 70.6447 14.92C71.658 13.1867 73.0314 11.8533 74.7647 10.92C76.498 9.96 78.4314 9.48 80.5647 9.48C82.698 9.48 84.6314 9.96 86.3647 10.92C88.098 11.8533 89.458 13.1867 90.4447 14.92C91.458 16.6533 91.9647 18.6533 91.9647 20.92C91.9647 23.1867 91.4447 25.1867 90.4047 26.92C89.3914 28.6533 88.0047 30 86.2447 30.96C84.5114 31.8933 82.5647 32.36 80.4047 32.36ZM80.4047 27.48C81.418 27.48 82.3647 27.24 83.2447 26.76C84.1514 26.2533 84.8714 25.5067 85.4047 24.52C85.938 23.5333 86.2047 22.3333 86.2047 20.92C86.2047 18.8133 85.6447 17.2 84.5247 16.08C83.4314 14.9333 82.0847 14.36 80.4847 14.36C78.8847 14.36 77.538 14.9333 76.4447 16.08C75.378 17.2 74.8447 18.8133 74.8447 20.92C74.8447 23.0267 75.3647 24.6533 76.4047 25.8C77.4714 26.92 78.8047 27.48 80.4047 27.48ZM108.353 9.52C110.993 9.52 113.126 10.36 114.753 12.04C116.379 13.6933 117.193 16.0133 117.193 19V32H111.593V19.76C111.593 18 111.153 16.6533 110.273 15.72C109.393 14.76 108.193 14.28 106.673 14.28C105.126 14.28 103.899 14.76 102.993 15.72C102.113 16.6533 101.673 18 101.673 19.76V32H96.0725V9.84H101.673V12.6C102.419 11.64 103.366 10.8933 104.513 10.36C105.686 9.8 106.966 9.52 108.353 9.52ZM125.358 7.2C124.371 7.2 123.544 6.89333 122.878 6.28C122.238 5.64 121.918 4.85333 121.918 3.92C121.918 2.98667 122.238 2.21333 122.878 1.6C123.544 0.959998 124.371 0.639998 125.358 0.639998C126.344 0.639998 127.158 0.959998 127.798 1.6C128.464 2.21333 128.798 2.98667 128.798 3.92C128.798 4.85333 128.464 5.64 127.798 6.28C127.158 6.89333 126.344 7.2 125.358 7.2ZM128.118 9.84V32H122.518V9.84H128.118Z" fill="black"/>
</svg>
